Color
C

Release Date
March 29, 1996

Language
Hindi

Genre
Musical  /  Thriller  /  Romance

Shooting Locations (City & Country)
Delhi (India)
India
Mauritius

Producer
Binda Thackarey

Director
Partho Ghosh

Star Cast
Jackie Shroff...... Suraj Kapoor
Nana Patekar...... Vishwanath
Manisha Koirala...... Shubhangi/Madhu
Ravi Behl...... Ravi Kapoor
Divya Dutta...... Urmi
Alok Nath...... Madhu's father
Asha Lata...... Mrs. Kapoor (Mother)
Subbiraj...... Mr. Kapoor (Father)
Avtar Gill...... Urmi's father
Achyut Potdar...... Commisioner
Brijesh Tiwari...... (as Brijesh T.)

Cassettes and CD's on
Zee Music

Singers
Alka Yagnik
Kavita Krishnamurthy
Vinod Rathod
Alisha Chinoy
Babul Supriyo
Kumar Sanu
Jolly Mukherjee

Lyricist
Sameer

Music Director
Nadeem Saifee
Shravan Kumar

Background Music
Naresh Sharma

Choreography
Nimesh Bhatt
Ganesh Hegde

Action
Sham Kaushal
Thakur

Art
R Verman
Manohar

Editor
R Rajendran

Sound
Prakash Bhatia

Costume
Anna Singh

Media Relations
R R Pathak

Publicity Designs
Studio Link


Ripper                           : Rahul
Complete name                    : Agni Sakshi 1996 DvDrip x264 ~ Musical | Romance | Thriller ~ [RdY]
Format                           : Matroska
File size                        : 1.42 GiB
Duration                         : 2h 21mn
Overall bit rate                 : 1 432 Kbps
Writing library                  : libmkv 0.6.4.1

Video
ID                               : 1
Format                           : AVC
Format/Info                      : Advanced Video Codec
Format profile                   : High@L3.0
Format settings, CABAC           : Yes
Format settings, ReFrames        : 4 frames
Format settings, GOP             : M=1, N=4
Codec ID                         : V_MPEG4/ISO/AVC
Duration                         : 2h 21mn
Bit rate                         : 956 Kbps
Nominal bit rate                 : 1 202 Kbps
Width                            : 720 pixels
Height                           : 384 pixels
Display aspect ratio             : 1.875
Frame rate                       : 23.976 fps
Color space                      : YUV
Chroma subsampling               : 4.2.0
Bit depth                        : 8 bits
Scan type                        : Progressive
Bits/(Pixel*Frame)               : 0.144
Stream size                      : 971 MiB (67%)
Writing library                  : x264 core 112

Audio
ID                               : 2
Format                           : AC-3
Format/Info                      : Audio Coding 3
Mode extension                   : CM (complete main)
Codec ID                         : A_AC3
Duration                         : 2h 21mn
Bit rate mode                    : Constant
Bit rate                         : 448 Kbps
Channel(s)                       : 6 channels
Channel positions                : Front: L C R, Side: L R, LFE
Sampling rate                    : 48.0 KHz
Bit depth                        : 16 bits
Compression mode                 : Lossy
Stream size                      : 455 MiB (31%)